<svg xmlns="http://www.w3.org/2000/svg" viewBox="0 0 439.924 276.281">
  <defs>
    <style>
      .cls-1 {
        opacity: 0.6;
      }

      .cls-10, .cls-2 {
        fill: #004fec;
      }

      .cls-3, .cls-5, .cls-9 {
        opacity: 0.06;
      }

      .cls-4, .cls-5, .cls-8 {
        fill: #fbbeb4;
      }

      .cls-6 {
        fill: #464353;
      }

      .cls-7 {
        fill: #fbbebe;
      }

      .cls-8 {
        opacity: 0.03;
      }

      .cls-10 {
        opacity: 0.6;
      }
    </style>
  </defs>
  <g id="undraw_personal_trainer_ote3" transform="translate(0 -0.25)">
    <g id="Group" class="cls-1" transform="translate(178.52 135.203)">
      <path id="Shape" class="cls-2" d="M16.929,0,2.379.312,0,3.712V15.458l2.97,2.164H16.929l2.97-3.4V3.092L16.929,0Z" transform="translate(0.361 0.263)"/>
      <path id="Shape-2" data-name="Shape" class="cls-2" d="M14.55,1.869S1.187,4.033,0,1.869L.3.326,14.55,0Z" transform="translate(2.435 0.249)"/>
      <path id="Shape-3" data-name="Shape" class="cls-2" d="M16.929.036,19.3,2.512V14.281l-2.374,2.435s-8.61,3.092-14.255.616L0,14.552V2.784L2.379,0Z" transform="translate(1.548 34.228)"/>
      <path id="Shape-4" data-name="Shape" class="cls-2" d="M13.955,2.784S3.561,5.255,0,2.784V0H14.55Z" transform="translate(3.927 34.265)"/>
      <path id="Shape-5" data-name="Shape" class="cls-2" d="M5.044,2.374v16.72a2.448,2.448,0,0,1-2.522,2.372h0A2.448,2.448,0,0,1,0,19.095V2.374A2.467,2.467,0,0,1,2.818.016h0A2.427,2.427,0,0,1,5.044,2.374Z" transform="translate(7.788 15.428)"/>
      <path id="Shape-6" data-name="Shape" class="cls-2" d="M16.929,0,2.379.308,0,3.707V15.453l2.97,2.164H16.929l2.97-3.4V3.087L16.929,0Z" transform="translate(23.665 0.742)"/>
      <path id="Shape-7" data-name="Shape" class="cls-2" d="M14.55,1.851S1.187,4.015,0,1.851L.3.308,14.55,0Z" transform="translate(25.744 0.742)"/>
      <path id="Shape-8" data-name="Shape" class="cls-2" d="M16.929,0,19.3,2.476V14.244l-2.374,2.449s-8.615,3.092-14.255.616L0,14.53V2.784L2.379,0Z" transform="translate(24.843 34.74)"/>
      <path id="Shape-9" data-name="Shape" class="cls-2" d="M13.955,2.784S3.561,5.255,0,2.784V0H14.542Z" transform="translate(27.231 34.74)"/>
      <path id="Shape-10" data-name="Shape" class="cls-2" d="M5.049,2.374v16.72a2.452,2.452,0,0,1-2.522,2.372h0A2.452,2.452,0,0,1,0,19.095V2.374A2.469,2.469,0,0,1,2.822.016h0A2.427,2.427,0,0,1,5.049,2.374Z" transform="translate(31.071 15.903)"/>
      <path id="Shape-11" data-name="Shape" class="cls-2" d="M13.937,0,1.957.258,0,3.055v9.668l2.444,1.783H13.937l2.444-2.8V2.544L13.937,0Z" transform="translate(56.323 9.682)"/>
      <path id="Shape-12" data-name="Shape" class="cls-2" d="M11.976,1.53S.978,3.309,0,1.53L.244.258,11.985,0Z" transform="translate(58.036 9.682)"/>
      <path id="Shape-13" data-name="Shape" class="cls-2" d="M13.942,0,15.9,2.037v9.668l-1.957,2.037S6.853,16.286,2.2,14.249L0,11.959V2.29L1.957,0Z" transform="translate(57.292 37.673)"/>
      <path id="Shape-14" data-name="Shape" class="cls-2" d="M11.489,2.29S2.931,4.327,0,2.29V0H11.976Z" transform="translate(59.258 37.673)"/>
      <path id="Shape-15" data-name="Shape" class="cls-2" d="M4.153,1.967V15.732a2.015,2.015,0,0,1-2.079,1.951h0A2.01,2.01,0,0,1,0,15.732V1.967A2.12,2.12,0,0,1,.746.462,1.952,1.952,0,0,1,2.318.025h0A2,2,0,0,1,4.153,1.967Z" transform="translate(62.437 22.154)"/>
      <path id="Shape-16" data-name="Shape" class="cls-2" d="M13.933,0,1.953.253,0,3.051v9.673L2.444,14.5H13.933l2.444-2.8V2.544L13.933,0Z" transform="translate(75.509 10.076)"/>
      <path id="Shape-17" data-name="Shape" class="cls-2" d="M11.98,1.525s-11,1.783-11.98,0L.244.253,11.985,0Z" transform="translate(77.218 10.076)"/>
      <path id="Shape-18" data-name="Shape" class="cls-2" d="M13.937,0,15.89,2.032V11.7l-1.953,2.037S6.845,16.281,2.2,14.249L0,11.972V2.29L1.957,0Z" transform="translate(76.483 38.067)"/>
      <path id="Shape-19" data-name="Shape" class="cls-2" d="M11.489,2.29S2.935,4.323,0,2.29V0H11.98Z" transform="translate(78.439 38.067)"/>
      <path id="Shape-20" data-name="Shape" class="cls-2" d="M4.157,1.951v13.76a2.015,2.015,0,0,1-2.079,1.951h0A2.015,2.015,0,0,1,0,15.711V1.951A2.036,2.036,0,0,1,2.322.014h0A2,2,0,0,1,4.157,1.951Z" transform="translate(81.618 22.559)"/>
    </g>
    <path id="Shape-21" data-name="Shape" class="cls-3" d="M66.945,24.9c-1.751,1.2-2.362,3.531-2.585,5.676-.949,9.12,2.741,18.149,2.5,27.315-.2,7.293-2.861,14.25-5.49,21.035a127.323,127.323,0,0,0-7.723,36.553c-.9,12.41-2.228,25.334-8.761,35.831-1.484,2.377-3.213,4.585-4.666,6.975-1.524,2.5-2.732,5.18-4.078,7.78a83.61,83.61,0,0,1-15.152,20.753,20.945,20.945,0,0,1-5.945,4.512,11.757,11.757,0,0,1-9.3.1C2.7,190.139.13,187.24.005,183.878c-.111-3.008,1.649-5.721,3.414-8.13a132.4,132.4,0,0,1,20.5-22.157,11.962,11.962,0,0,0,3.565-4.122c.807-1.959.477-4.181.579-6.3.165-3.385,1.457-6.6,2.228-9.9,3.119-13.4-2.424-28.033,2.086-41.016,1-2.886,2.491-5.644,2.843-8.684a8.373,8.373,0,0,0-1.573-6.1,8.107,8.107,0,0,1-1.93-5.162,10,10,0,0,1,.045-1.159,127.75,127.75,0,0,0,.789-17.89,42.615,42.615,0,0,0-4.158-17.268c-1.4-2.749-3.209-5.321-4.073-8.289-1.39-4.8-.107-10,1.965-14.541a25.342,25.342,0,0,1,6.787-9.375,17.893,17.893,0,0,1,20.1-1.3c4.519,2.754,7.612,7.384,10.12,12.106C65.1,18.038,66.971,20.96,66.945,24.9Z" transform="translate(278.406 65.07)"/>
    <path id="Shape-22" data-name="Shape" class="cls-4" d="M41.36,16.788q-1.282,3.571-2.551,7.142c-.561,1.563-1.117,3.139-1.7,4.7-2.671,7.2-5.658,14.288-10.331,20.249.7-.892-5.876-5.377-10.723-8.438-2.364-1.5-4.322-2.661-4.8-2.891a34.469,34.469,0,0,0-3.5-1.406c-1.847-.643-3.717-1.2-5.564-1.893-4.273-1.595-1.286-3.989.543-6.563C8.718,19.261,9.854,7.744,16.651,0A25.447,25.447,0,0,0,27.9,11.237c.093.051.191.1.289.138,4.037,1.949,8.5,2.79,12.673,4.421a.844.844,0,0,1,.565.46.946.946,0,0,1-.071.533Z" transform="translate(285.844 38.505)"/>
    <path id="Shape-23" data-name="Shape" class="cls-4" d="M3.569,25.64A21.439,21.439,0,0,0,1.525,45.432a6.745,6.745,0,0,0,1.481,2.389A6.811,6.811,0,0,0,5.832,49.2c8.728,2.59,18.046,2.081,26.985.458A45.9,45.9,0,0,0,41.7,47.294c4.426-1.765,8.377-4.585,12.28-7.4l8.254-5.933a49.634,49.634,0,0,1,8.35-5.2A35.353,35.353,0,0,1,85.2,26.117a65.448,65.448,0,0,1,12.745,1.27c2.8.564,6.153,1.146,8.122-.986a8.228,8.228,0,0,0,1.679-4.635A72.021,72.021,0,0,0,107.7,2.249a2.6,2.6,0,0,0-.541-1.49,2.157,2.157,0,0,0-1.09-.518c-3.89-.917-7.792.986-11.572,2.292C86.642,5.257,78.208,5.582,70.218,7.824c-8.386,2.352-16.261,6.8-24.928,7.707-4.131.431-8.28.055-12.42.151-3.841.087-7.423,1.472-11.185,1.637C14.433,17.654,8.126,18.974,3.569,25.64Z" transform="translate(312.41 197.898)"/>
    <path id="Shape-24" data-name="Shape" class="cls-5" d="M3.569,25.64A21.439,21.439,0,0,0,1.525,45.432a6.745,6.745,0,0,0,1.481,2.389A6.811,6.811,0,0,0,5.832,49.2c8.728,2.59,18.046,2.081,26.985.458A45.9,45.9,0,0,0,41.7,47.294c4.426-1.765,8.377-4.585,12.28-7.4l8.254-5.933a49.634,49.634,0,0,1,8.35-5.2A35.353,35.353,0,0,1,85.2,26.117a65.448,65.448,0,0,1,12.745,1.27c2.8.564,6.153,1.146,8.122-.986a8.228,8.228,0,0,0,1.679-4.635A72.021,72.021,0,0,0,107.7,2.249a2.6,2.6,0,0,0-.541-1.49,2.157,2.157,0,0,0-1.09-.518c-3.89-.917-7.792.986-11.572,2.292C86.642,5.257,78.208,5.582,70.218,7.824c-8.386,2.352-16.261,6.8-24.928,7.707-4.131.431-8.28.055-12.42.151-3.841.087-7.423,1.472-11.185,1.637C14.433,17.654,8.126,18.974,3.569,25.64Z" transform="translate(312.41 197.898)"/>
    <path id="Shape-25" data-name="Shape" class="cls-6" d="M.25,64.144a6.545,6.545,0,0,0-.1,3.092A5.747,5.747,0,0,0,1.9,69.715c7.453,7.013,18.1,8.465,28.058,9.6a26.9,26.9,0,0,0,8.111.106,27.364,27.364,0,0,0,6.944-2.7c4.822-2.4,9.671-4.829,13.805-8.359C62.877,64.9,66.13,60.48,70.33,57.223c4.774-3.686,10.645-5.8,14.906-10.137a21.425,21.425,0,0,0,5.844-11.64,34.9,34.9,0,0,0,0-9.17A28.39,28.39,0,0,0,88.59,16.1c-1.837-3.594-4.923-6.308-8.181-8.538A41.033,41.033,0,0,0,57.173,0c-11.4.106-21.92,7.078-30.1,14.907A93.114,93.114,0,0,0,.25,64.144Z" transform="translate(323.036 149.017)"/>
    <path id="Shape-26" data-name="Shape" class="cls-3" d="M.25,64.144a6.545,6.545,0,0,0-.1,3.092A5.747,5.747,0,0,0,1.9,69.715c7.453,7.013,18.1,8.465,28.058,9.6a26.9,26.9,0,0,0,8.111.106,27.364,27.364,0,0,0,6.944-2.7c4.822-2.4,9.671-4.829,13.805-8.359C62.877,64.9,66.13,60.48,70.33,57.223c4.774-3.686,10.645-5.8,14.906-10.137a21.425,21.425,0,0,0,5.844-11.64,34.9,34.9,0,0,0,0-9.17A28.39,28.39,0,0,0,88.59,16.1c-1.837-3.594-4.923-6.308-8.181-8.538A41.033,41.033,0,0,0,57.173,0c-11.4.106-21.92,7.078-30.1,14.907A93.114,93.114,0,0,0,.25,64.144Z" transform="translate(323.036 149.017)"/>
    <path id="Shape-27" data-name="Shape" class="cls-4" d="M66.945,24.9c-1.751,1.2-2.362,3.531-2.585,5.676-.949,9.12,2.741,18.149,2.5,27.315-.2,7.293-2.861,14.25-5.49,21.035a127.323,127.323,0,0,0-7.723,36.553c-.9,12.41-2.228,25.334-8.761,35.831-1.484,2.377-3.213,4.585-4.666,6.975-1.524,2.5-2.732,5.18-4.078,7.78a83.61,83.61,0,0,1-15.152,20.753,20.945,20.945,0,0,1-5.945,4.512,11.757,11.757,0,0,1-9.3.1C2.7,190.139.13,187.24.005,183.878c-.111-3.008,1.649-5.721,3.414-8.13a132.4,132.4,0,0,1,20.5-22.157,11.962,11.962,0,0,0,3.565-4.122c.807-1.959.477-4.181.579-6.3.165-3.385,1.457-6.6,2.228-9.9,3.119-13.4-2.424-28.033,2.086-41.016,1-2.886,2.491-5.644,2.843-8.684a8.373,8.373,0,0,0-1.573-6.1,8.107,8.107,0,0,1-1.93-5.162,10,10,0,0,1,.045-1.159,127.75,127.75,0,0,0,.789-17.89,42.615,42.615,0,0,0-4.158-17.268c-1.4-2.749-3.209-5.321-4.073-8.289-1.39-4.8-.107-10,1.965-14.541a25.342,25.342,0,0,1,6.787-9.375,17.893,17.893,0,0,1,20.1-1.3c4.519,2.754,7.612,7.384,10.12,12.106C65.1,18.038,66.971,20.96,66.945,24.9Z" transform="translate(278.406 65.07)"/>
    <ellipse id="Oval" class="cls-4" cx="16.471" cy="27.097" rx="16.471" ry="27.097" transform="translate(302.846 65.07)"/>
    <path id="Shape-28" data-name="Shape" class="cls-7" d="M3.78,15.612a6.174,6.174,0,0,1,.9,5.047A8.474,8.474,0,0,0,10.184,22.3a16.7,16.7,0,0,0,5.669-1.335A18.584,18.584,0,0,0,20.262,18.6a19.828,19.828,0,0,0,5.377-6.928c.757-1.45,1.4-3.326.448-4.629a4.352,4.352,0,0,0-1.344-1.064A79.028,79.028,0,0,0,13.988.743,7.751,7.751,0,0,0,10.744,0,6.881,6.881,0,0,0,7.024,1.711a20.561,20.561,0,0,0-5.79,7.34c-.421.918-1.694,3.1-1.062,4.042.287.436,1.344.587,1.792.863A5.842,5.842,0,0,1,3.78,15.612Z" transform="translate(274.156 219.15)"/>
    <path id="Shape-29" data-name="Shape" class="cls-8" d="M3.78,15.612a6.174,6.174,0,0,1,.9,5.047A8.474,8.474,0,0,0,10.184,22.3a16.7,16.7,0,0,0,5.669-1.335A18.584,18.584,0,0,0,20.262,18.6a19.828,19.828,0,0,0,5.377-6.928c.757-1.45,1.4-3.326.448-4.629a4.352,4.352,0,0,0-1.344-1.064A79.028,79.028,0,0,0,13.988.743,7.751,7.751,0,0,0,10.744,0,6.881,6.881,0,0,0,7.024,1.711a20.561,20.561,0,0,0-5.79,7.34c-.421.918-1.694,3.1-1.062,4.042.287.436,1.344.587,1.792.863A5.842,5.842,0,0,1,3.78,15.612Z" transform="translate(274.156 219.15)"/>
    <path id="Shape-30" data-name="Shape" class="cls-6" d="M23.22.008C30.659,1.49,37.5,5.351,44.811,7.432a67.956,67.956,0,0,1,8.832,2.652,12.347,12.347,0,0,1,6.709,6.362,19.342,19.342,0,0,1,1.016,4.493c.317,2.176.576,4.606-.629,6.39-1.271,1.888-3.671,2.3-5.821,2.582-7.729.986-15.457,1.977-23.213,2.676a37.929,37.929,0,0,0-4.682.6c-1.275.274-2.519.689-3.785,1.01-1.64.411-3.306.67-4.968.944-4.251.656-8.551,1.312-12.82.812C3.5,35.721,1.322,35.046.465,33.159a7.609,7.609,0,0,1-.44-3.077c-.022-2.8-.044-5.6,0-8.4.04-2.874.171-5.857,1.385-8.42A3.253,3.253,0,0,1,3,11.491a3.406,3.406,0,0,1,1.363-.132c2.286.085,4.651.189,6.7,1.284,1.622.864,2.941,2.3,4.594,3.087,3.13,1.491,6.907.42,10.076,1.822a14.5,14.5,0,0,0,.022-7.424A61.427,61.427,0,0,1,24.2,2.6,5.105,5.105,0,0,0,23.9.962C23.66.438,23.739-.072,23.22.008Z" transform="translate(270.968 224.463)"/>
    <path id="Shape-31" data-name="Shape" class="cls-3" d="M23.22.008C30.659,1.49,37.5,5.351,44.811,7.432a67.956,67.956,0,0,1,8.832,2.652,12.347,12.347,0,0,1,6.709,6.362,19.342,19.342,0,0,1,1.016,4.493c.317,2.176.576,4.606-.629,6.39-1.271,1.888-3.671,2.3-5.821,2.582-7.729.986-15.457,1.977-23.213,2.676a37.929,37.929,0,0,0-4.682.6c-1.275.274-2.519.689-3.785,1.01-1.64.411-3.306.67-4.968.944-4.251.656-8.551,1.312-12.82.812C3.5,35.721,1.322,35.046.465,33.159a7.609,7.609,0,0,1-.44-3.077c-.022-2.8-.044-5.6,0-8.4.04-2.874.171-5.857,1.385-8.42A3.253,3.253,0,0,1,3,11.491a3.406,3.406,0,0,1,1.363-.132c2.286.085,4.651.189,6.7,1.284,1.622.864,2.941,2.3,4.594,3.087,3.13,1.491,6.907.42,10.076,1.822a14.5,14.5,0,0,0,.022-7.424A61.427,61.427,0,0,1,24.2,2.6,5.105,5.105,0,0,0,23.9.962C23.66.438,23.739-.072,23.22.008Z" transform="translate(270.968 224.463)"/>
    <path id="Shape-32" data-name="Shape" class="cls-7" d="M6.247,28.486c-1.475-.5-2.9.893-3.725,2.3-3.435,5.747-3.154,13.42-.407,19.572A14.95,14.95,0,0,0,4.78,54.584a25.608,25.608,0,0,0,5.191,3.684A40.18,40.18,0,0,1,22.413,70.7c2.115,3.32,3.781,6.972,6.182,10.062C34.5,88.372,44.217,91.817,49.949,99.554c1.371,1.842,2.531,3.979,4.361,5.319a7.036,7.036,0,0,0,7.49.57,7.932,7.932,0,0,0,4.117-6.686A90.557,90.557,0,0,0,71.7,87.626a137.786,137.786,0,0,0,6.489-17.9c.645-2.164,1.268-4.343,2.09-6.447,2.029-5.195,5.261-9.9,6.4-15.386.459-2.2.571-4.49,1.237-6.627A12.757,12.757,0,0,1,90.895,36.2c4.5-4.656,6.922-11.439,10.5-16.92a37.066,37.066,0,0,0,3.924-6.931,11.618,11.618,0,0,0,.433-7.907c-.9-2.533-3.236-4.578-5.771-4.435a8.384,8.384,0,0,0-3.24,1.059,36.127,36.127,0,0,0-9.491,6.963,47.868,47.868,0,0,0-3.461,3.961C78.5,18.714,74.365,26.874,74,35.633c-.121,3,.1,6.332-1.687,8.658-4.94,6.424-6.528,15.257-10.742,22.248-1.951,3.224-4.188,6.562-7.523,8.032a3.044,3.044,0,0,1-1.583.332c-1.332-.161-2.1-1.653-2.661-2.952A116.606,116.606,0,0,0,42.2,57.328,13.624,13.624,0,0,0,38,52.516c-1.237-.732-2.674-1.059-3.837-1.916-1.622-1.193-2.47-3.224-3.314-5.126a80.434,80.434,0,0,0-10.3-17.095C18.671,26,16.2,23.54,13.3,23.894,10.538,24.24,8.851,27.33,6.247,28.486Z" transform="translate(41.442 119.264)"/>
    <path id="Shape-33" data-name="Shape" class="cls-8" d="M6.247,28.486c-1.475-.5-2.9.893-3.725,2.3-3.435,5.747-3.154,13.42-.407,19.572A14.95,14.95,0,0,0,4.78,54.584a25.608,25.608,0,0,0,5.191,3.684A40.18,40.18,0,0,1,22.413,70.7c2.115,3.32,3.781,6.972,6.182,10.062C34.5,88.372,44.217,91.817,49.949,99.554c1.371,1.842,2.531,3.979,4.361,5.319a7.036,7.036,0,0,0,7.49.57,7.932,7.932,0,0,0,4.117-6.686A90.557,90.557,0,0,0,71.7,87.626a137.786,137.786,0,0,0,6.489-17.9c.645-2.164,1.268-4.343,2.09-6.447,2.029-5.195,5.261-9.9,6.4-15.386.459-2.2.571-4.49,1.237-6.627A12.757,12.757,0,0,1,90.895,36.2c4.5-4.656,6.922-11.439,10.5-16.92a37.066,37.066,0,0,0,3.924-6.931,11.618,11.618,0,0,0,.433-7.907c-.9-2.533-3.236-4.578-5.771-4.435a8.384,8.384,0,0,0-3.24,1.059,36.127,36.127,0,0,0-9.491,6.963,47.868,47.868,0,0,0-3.461,3.961C78.5,18.714,74.365,26.874,74,35.633c-.121,3,.1,6.332-1.687,8.658-4.94,6.424-6.528,15.257-10.742,22.248-1.951,3.224-4.188,6.562-7.523,8.032a3.044,3.044,0,0,1-1.583.332c-1.332-.161-2.1-1.653-2.661-2.952A116.606,116.606,0,0,0,42.2,57.328,13.624,13.624,0,0,0,38,52.516c-1.237-.732-2.674-1.059-3.837-1.916-1.622-1.193-2.47-3.224-3.314-5.126a80.434,80.434,0,0,0-10.3-17.095C18.671,26,16.2,23.54,13.3,23.894,10.538,24.24,8.851,27.33,6.247,28.486Z" transform="translate(41.442 119.264)"/>
    <ellipse id="Oval-2" data-name="Oval" class="cls-4" cx="11.157" cy="10.095" rx="11.157" ry="10.095" transform="translate(35.066 104.387)"/>
    <ellipse id="Oval-3" data-name="Oval" class="cls-7" cx="3.719" cy="4.25" rx="3.719" ry="4.25" transform="translate(54.194 108.638)"/>
    <ellipse id="Oval-4" data-name="Oval" class="cls-4" cx="15.408" cy="4.25" rx="15.408" ry="4.25" transform="translate(32.941 105.45)"/>
    <path id="Shape-34" data-name="Shape" class="cls-4" d="M5.483,35.668a30.826,30.826,0,0,1,.9,3.871,23.053,23.053,0,0,1-3.415-4.677,3.505,3.505,0,0,1-.6-1A27.528,27.528,0,0,1,0,23.258C0,11.212,8.824,1.16,20.337.093s21.9,7.2,23.94,19.061-4.947,23.373-16.1,26.539c.682-2.291,1.616-4.528,1.738-6.9a5.173,5.173,0,0,0-.321-2.332,5.258,5.258,0,0,0-1.638-1.965A13.752,13.752,0,0,0,19.146,31.7a23.379,23.379,0,0,0-9.058,2.264c-.9.4-1.977.946-3.041,1.318a7.649,7.649,0,0,1-1.564.385Z" transform="translate(27.03 74.169)"/>
    <path id="Shape-35" data-name="Shape" class="cls-4" d="M56.919,47.006c-1.433,2.386-4.494,3.115-7.185,2.9-5.016-.385-9.579-3.169-13.455-6.519s-7.263-7.244-11.225-10.467C17.683,26.914,9.379,24.5,0,24.361c1.833-1.58,1.158-5.329,1.306-7.791a79.175,79.175,0,0,0,0-15C1.241,1.041,1.167.521,1.08,0c.148.163.3.321.466.484A21.793,21.793,0,0,0,22.921,6.152a18.709,18.709,0,0,0-.562,2.408c-.54,3.5.366,7.049,1.258,10.476.531,2.051,1.163,4.251,2.787,5.532a12.023,12.023,0,0,0,3.631,1.6A19.862,19.862,0,0,1,36.8,30.242a55.517,55.517,0,0,0,4.089,3.807,28.078,28.078,0,0,0,4.42,2.372,54.939,54.939,0,0,1,10.624,6.7,3.59,3.59,0,0,1,1.38,1.7,2.889,2.889,0,0,1-.4,2.187Z" transform="translate(32.941 113.951)"/>
    <path id="Shape-36" data-name="Shape" class="cls-4" d="M90.272,70.085c-.3,2.1-2.121,3.733-3.406,5.36-3.493,4.45-7.034,8.914-10.941,12.987a174.14,174.14,0,0,1-13.358,12.114l-5.949,5.025a7.427,7.427,0,0,1-2.53,1.609,4.4,4.4,0,0,1-3.258-.409,6.323,6.323,0,0,1-1.128-.731,15.93,15.93,0,0,1-3.023-3.747q-6.037-9.3-12.086-18.6c-1.437-2.216-2.848-4.491-4.251-6.767-.187-.294-.366-.593-.553-.887-1.28-2.069-2.557-4.137-3.868-6.137l-7.169-3.544-.941-.46L16.7,65.345a17.408,17.408,0,0,1-4.2-2.607,14.973,14.973,0,0,1-2.9-4.05,72.838,72.838,0,0,1-3.754-8.675C2.8,41.89.117,33.422,0,24.678-.1,16.987,2.055,8.988,6.9,3.343a22.285,22.285,0,0,1,2.13-2.179A3.689,3.689,0,0,1,12.12.037c1.2.179,2.334.363,3.484.57q4.756.864,9.438,2.115c2.814.759,5.727,1.623,8.571,1.021.457-.1.91-.234,1.363-.359.37-.1.736-.2,1.115-.262a4.9,4.9,0,0,1,.636-.074,9.587,9.587,0,0,1,4.355,1.186c2.661,1.2,5.4,2.473,7.4,4.689,1.193,1.333,2.069,2.97,3.341,4.225,1.7,1.678,3.963,2.538,6,3.738a10.7,10.7,0,0,1,1.137.768,13.241,13.241,0,0,1,2.178,2.184h0c2.639,3.287,4.207,7.723,7.121,10.992A44.81,44.81,0,0,1,74.3,39.458c.274.519.54,1.044.8,1.577q.653,1.331,1.215,2.7c.1.234.192.46.279.7a43.737,43.737,0,0,1,1.433,4.216c.989,3.471,1.646,7.218,3.841,10,1.533,1.935,3.658,3.218,5.449,4.887a10.16,10.16,0,0,1,2.648,3.8A5.714,5.714,0,0,1,90.272,70.085Z" transform="translate(25.503 135.203)"/>
    <path id="Shape-37" data-name="Shape" class="cls-3" d="M71.2,41.193q-.749.992-1.537,1.957c-.087.119-.183.233-.279.347A84.747,84.747,0,0,1,53.77,58.358c-3.578,2.624-7.352,4.951-11.118,7.273l-6.965,4.283a42.293,42.293,0,0,1-9.094,4.64c-1.036.325-2.12.585-3.178.891-.187-.293-.366-.59-.553-.882-1.28-2.057-2.555-4.114-3.866-6.1l-7.165-3.525a42.737,42.737,0,0,0,10.387-9.774c4.353-5.636,7.7-12.064,11-18.45a14.242,14.242,0,0,0,1.354-3.291,11.854,11.854,0,0,0-.466-5.81A30.552,30.552,0,0,0,22.44,11.1c-3.918-2.743-8.375-4.411-12.807-6.02C6.538,3.95,3.147,2.862,0,3.324A21.67,21.67,0,0,1,2.129,1.162,3.687,3.687,0,0,1,5.219.037C6.417.215,7.553.4,8.7.608c2.329.75,4.619,1.646,6.9,2.569A31.6,31.6,0,0,1,19.95,5.248,39.021,39.021,0,0,1,23.96,8.2a99.851,99.851,0,0,0,11.893,8.187c4.788,2.775,9.816,5.028,14.84,7.314a3.8,3.8,0,0,0,1.719.457,1.364,1.364,0,0,0,1.306-1.07,1.794,1.794,0,0,0-.209-.955c-.871-1.87-2.847-2.811-4.636-3.721C41.446,14.633,34.916,9.2,28.456,3.8a2.114,2.114,0,0,1-.409-.457l1.114-.261A164.7,164.7,0,0,0,51.994,17.541q.631.338,1.267.658c.3.16.605.315.914.457h0a19.442,19.442,0,0,1,5.907,4.114,19.054,19.054,0,0,1,2.612,4.164,80.36,80.36,0,0,1,4.545,10.971q.036.121.083.238a4.3,4.3,0,0,0,.8,1.568,1.709,1.709,0,0,0,.457.379C69.4,40.6,70.521,40.544,71.2,41.193Z" transform="translate(32.941 136.266)"/>
    <path id="Shape-38" data-name="Shape" class="cls-2" d="M29.188,3.1A164.339,164.339,0,0,0,52.027,17.528l1.267.662c2.438,1.251,4.977,2.492,6.828,4.564a19.159,19.159,0,0,1,2.613,4.163,79.36,79.36,0,0,1,4.542,10.955,3.724,3.724,0,0,0,1.346,2.182c.74.429,1.916.4,2.573,1.045-.592.776-1.193,1.543-1.816,2.282A84.58,84.58,0,0,1,53.765,58.224c-3.579,2.62-7.355,4.943-11.121,7.262l-6.967,4.277a42.525,42.525,0,0,1-9.1,4.628c-1.215.388-2.5.68-3.732,1.054-1.28-2.054-2.556-4.108-3.867-6.094l-8.108-3.98A41.448,41.448,0,0,0,22.195,55.029c4.354-5.623,7.7-12.041,11-18.417a14.285,14.285,0,0,0,1.354-3.286,11.834,11.834,0,0,0-.466-5.806A30.507,30.507,0,0,0,22.447,11.074c-3.919-2.739-8.378-4.4-12.811-6.011C6.54,3.944,3.148,2.853,0,3.319A22.2,22.2,0,0,1,2.129,1.155,3.7,3.7,0,0,1,5.221.037C6.418.215,7.555.4,8.7.6c2.33.753,4.62,1.648,6.9,2.57A31.1,31.1,0,0,1,19.957,5.24a39.03,39.03,0,0,1,4.01,2.944,99.81,99.81,0,0,0,11.914,8.152,161.117,161.117,0,0,0,14.844,7.3,3.8,3.8,0,0,0,1.72.456,1.355,1.355,0,0,0,1.306-1.068,1.779,1.779,0,0,0-.209-.949c-.871-1.867-2.848-2.812-4.638-3.715-7.429-3.77-13.96-9.2-20.422-14.606a1.987,1.987,0,0,1-.409-.456Z" transform="translate(32.941 135.203)"/>
    <ellipse id="Oval-5" data-name="Oval" class="cls-2" cx="28.159" cy="29.222" rx="28.159" ry="29.222" transform="translate(96.698 105.45)"/>
    <path id="Shape-39" data-name="Shape" class="cls-6" d="M15.829,87.135C21,85.436,26.241,83.7,30.779,80.6a89.328,89.328,0,0,0,8.829-7.589c2.177-1.953,4.445-3.795,6.442-5.95a69.7,69.7,0,0,0,5.013-6.364Q56.356,53.435,62,46.454c2.018-2.482,4.151-5.01,6.969-6.392,5.008-2.464,10.887-.8,16.172.889,7.915,2.533,15.79,5.217,23.194,9.072,4.212,2.2,8.293,4.646,12.545,6.751,7.774,3.845,16.027,6.484,24.249,9.109a2.949,2.949,0,0,0,1.935.166,2.881,2.881,0,0,0,1.148-1,17.366,17.366,0,0,0,2.546-4.6.912.912,0,0,0-.207-1.193c-3.518-3.587-8.082-5.793-12.347-8.349-3.395-2.031-6.644-4.31-9.889-6.59a54.51,54.51,0,0,1-8.878-7.211c-1.319-1.423-2.506-2.993-3.935-4.292a33.009,33.009,0,0,0-4-2.938,161.5,161.5,0,0,1-17.9-13.893c-4.3-3.85-7.822-8.809-12.417-12.263C78.359,1.592,75.079-.337,71.632.05c-4.195.46-7.29,4.144-10.214,7.322C51.59,18.06,39.191,25.709,28.224,35.108,19.272,42.77,10.9,51.874,0,55.918c.488,1.695.66,3.389,1.152,5.065a54.621,54.621,0,0,0,2.291,6.834,54.515,54.515,0,0,0,3.047,5.71L10.861,81a18.85,18.85,0,0,0,3.056,4.269C14.576,85.933,15.829,86.172,15.829,87.135Z" transform="translate(136.015 161.769)"/>
    <path id="Shape-40" data-name="Shape" class="cls-3" d="M15.829,87.135C21,85.436,26.241,83.7,30.779,80.6a89.328,89.328,0,0,0,8.829-7.589c2.177-1.953,4.445-3.795,6.442-5.95a69.7,69.7,0,0,0,5.013-6.364Q56.356,53.435,62,46.454c2.018-2.482,4.151-5.01,6.969-6.392,5.008-2.464,10.887-.8,16.172.889,7.915,2.533,15.79,5.217,23.194,9.072,4.212,2.2,8.293,4.646,12.545,6.751,7.774,3.845,16.027,6.484,24.249,9.109a2.949,2.949,0,0,0,1.935.166,2.881,2.881,0,0,0,1.148-1,17.366,17.366,0,0,0,2.546-4.6.912.912,0,0,0-.207-1.193c-3.518-3.587-8.082-5.793-12.347-8.349-3.395-2.031-6.644-4.31-9.889-6.59a54.51,54.51,0,0,1-8.878-7.211c-1.319-1.423-2.506-2.993-3.935-4.292a33.009,33.009,0,0,0-4-2.938,161.5,161.5,0,0,1-17.9-13.893c-4.3-3.85-7.822-8.809-12.417-12.263C78.359,1.592,75.079-.337,71.632.05c-4.195.46-7.29,4.144-10.214,7.322C51.59,18.06,39.191,25.709,28.224,35.108,19.272,42.77,10.9,51.874,0,55.918c.488,1.695.66,3.389,1.152,5.065a54.621,54.621,0,0,0,2.291,6.834,54.515,54.515,0,0,0,3.047,5.71L10.861,81a18.85,18.85,0,0,0,3.056,4.269C14.576,85.933,15.829,86.172,15.829,87.135Z" transform="translate(136.015 161.769)"/>
    <path id="Shape-41" data-name="Shape" class="cls-4" d="M3.761,15.6a6.188,6.188,0,0,1,.9,5.047A8.459,8.459,0,0,0,10.152,22.3a16.929,16.929,0,0,0,5.683-1.331,18.755,18.755,0,0,0,4.41-2.367,20.074,20.074,0,0,0,5.4-6.933c.757-1.445,1.4-3.322.426-4.625a4.236,4.236,0,0,0-1.345-1.064A79.244,79.244,0,0,0,13.992.748,7.845,7.845,0,0,0,10.748,0,6.887,6.887,0,0,0,7.023,1.716,20.563,20.563,0,0,0,1.237,9.057C.816,9.974-.457,12.158.171,13.1c.287.436,1.345.587,1.793.858A5.847,5.847,0,0,1,3.761,15.6Z" transform="translate(267.78 224.463)"/>
    <path id="Shape-42" data-name="Shape" class="cls-6" d="M23.211.008c7.44,1.487,14.283,5.343,21.6,7.424a67.981,67.981,0,0,1,8.834,2.653,12.349,12.349,0,0,1,6.71,6.362,19.4,19.4,0,0,1,1.016,4.493c.317,2.176.576,4.607-.629,6.391-1.271,1.888-3.672,2.308-5.822,2.582C47.186,30.9,39.455,31.891,31.7,32.59a38.873,38.873,0,0,0-4.674.6c-1.275.278-2.52.689-3.786,1.01-1.636.415-3.307.67-4.969.944-4.252.651-8.553,1.312-12.823.807C3.5,35.719,1.317,35.044.459,33.156a7.608,7.608,0,0,1-.44-3.077c0-2.8-.044-5.6,0-8.4C.059,18.8.191,15.82,1.4,13.257a3.267,3.267,0,0,1,1.587-1.77,3.407,3.407,0,0,1,1.363-.132c2.287.085,4.652.189,6.7,1.284,1.623.864,2.792-1.718,4.446-.944,3.135,1.487,1.011-3.021,4.177-1.619.739-2.445,3.878-.991,3.333-3.5S24.42,5.163,24.2,2.585A5.13,5.13,0,0,0,23.9.943C23.651.438,23.73-.072,23.211.008Z" transform="translate(267.78 228.714)"/>
    <path id="Shape-43" data-name="Shape" class="cls-3" d="M41.442,9.858c-1.732,1.058-3.88.861-5.9.815a34.988,34.988,0,0,0-5.282.286,4.806,4.806,0,0,0-1.817.506,4.711,4.711,0,0,0-1.688,2.065,15.14,15.14,0,0,0-1.424,4.6c-.25,1.8-.223,3.774-1.295,5.2-1.46,1.943-3.737,1.643-5.8,2.027A15.2,15.2,0,0,0,13.14,27.4a13.225,13.225,0,0,0-5.9,9.087c-.058.426-.1.847-.116,1.273-.045,1.208.071,2.439-.08,3.624a6.577,6.577,0,0,1-.17.876A1.939,1.939,0,0,1,6.8,42.5c-.067-.548-.143-1.086-.232-1.625a23.831,23.831,0,0,1-3.509-4.836,3.629,3.629,0,0,1-.621-1.03A28.613,28.613,0,0,1,0,24.044C0,13.641,6.38,4.417,15.811,1.189a22.338,22.338,0,0,1,25.626,8.67Z" transform="translate(28.691 72.509)"/>
    <path id="Shape-44" data-name="Shape" class="cls-6" d="M70.639,11.022c-1.121-2.7-3.489-4.607-5.923-6.107A31.382,31.382,0,0,0,48.8,0a39.607,39.607,0,0,0-8.41.906A39.972,39.972,0,0,0,32.5,3.23a28.175,28.175,0,0,0-10.822,8.3,10.507,10.507,0,0,0-1.81.3,18.017,18.017,0,0,0-6.46,3.506,20.949,20.949,0,0,0-4.3,4.362,19.132,19.132,0,0,0-2.9,7.081c-1.662,7.955.384,16.163,1.884,24.15s2.377,16.711-1.309,23.887C5.4,77.537,3.42,79.847,1.937,82.493S-.532,88.323.31,91.258c1,3.57,4.379,5.835,6.141,9.047a11.18,11.18,0,0,1-2.037,13.01c2.77,1,5.854-.077,8.348-1.672a15,15,0,0,0,4.916-4.843c3.136-5.273,1.745-12.082,2.835-18.175,1.452-7.973,7.315-15.085,6.508-23.158-.545-5.436-4-9.944-6.717-14.6a58.208,58.208,0,0,1-4.549-9.8,15.307,15.307,0,0,1-1.147-7.6,10.522,10.522,0,0,1,.685-2.265v.258a17.915,17.915,0,0,0,1.492,6.8c3.245,6.886,11.886,9.423,15.545,16.077a10.765,10.765,0,0,0,2.617-4.054,19.324,19.324,0,0,0,.244-4.358A12.7,12.7,0,0,1,41.071,35.9a14.769,14.769,0,0,1,4.977-1.971c2.015-.376,4.24-.091,5.67-1.971,1.047-1.359,1.021-3.289,1.269-5.028a14.455,14.455,0,0,1,1.391-4.453,4.527,4.527,0,0,1,1.649-1.993,4.658,4.658,0,0,1,1.78-.489,34.415,34.415,0,0,1,5.156-.276c1.993.05,4.126.236,5.836-.829C71.206,17.364,71.76,13.74,70.639,11.022Z" transform="translate(0 61.882)"/>
    <path id="Shape-45" data-name="Shape" class="cls-3" d="M26.565,11.383v.188c-.759,7.166-7.051,6.835-8.519,18.127-.579,4.424-6.711,5.241-10.742,6.431-1.741-.643-3.5-1.2-5.243-1.893-4.027-1.594-1.212-3.987.512-6.56C8.215,19.252,9.285,7.74,15.69,0a24.752,24.752,0,0,0,10.6,11.231A1.471,1.471,0,0,0,26.565,11.383Z" transform="translate(285.844 38.505)"/>
    <path id="Shape-46" data-name="Shape" class="cls-4" d="M56.319,29.219a30.674,30.674,0,0,1-.179,3.3C54.421,48.231,40.965,59.676,25.778,58.338S-.814,43.365.046,27.573,13.717-.434,28.953.012,56.318,13.4,56.319,29.219Z" transform="translate(261.404 14.065)"/>
    <path id="Shape-47" data-name="Shape" class="cls-2" d="M28.69.014c3.129-.162,6.136,1.141,9.026,2.421C49.174,7.516,60.729,12.639,70.968,20.1a185.41,185.41,0,0,1,14.4,12.1l19.187,17.3a71.592,71.592,0,0,1,10.357,10.74,73.646,73.646,0,0,1,4.757,7.853l2.846,5.151a47.352,47.352,0,0,1,3.046,6.306c1.462,3.977,2.006,8.615,4.957,11.521,1.98,1.954,4.709,2.749,7.128,4.037s4.787,3.552,4.748,6.426c0,1.848-1.053,3.511-1.845,5.174a21.847,21.847,0,0,0-1.984,11.239L107.184,92.5a10.5,10.5,0,0,0-4.091-2.4c-1.993-.462-4.025.337-5.949,1.058a109.155,109.155,0,0,1-47.309,6.6c-7.089-.591-14.287-1.945-20.493-5.627a63.912,63.912,0,0,1-9.487-7.391A119.106,119.106,0,0,1,8.977,74.217a7.538,7.538,0,0,1-2-3.511A12.349,12.349,0,0,1,7.1,67.713C7.645,60.705,2.162,54.871.491,48.066A18.7,18.7,0,0,1,5.8,30.2c3.738,3.474,3.6,9.576,3.168,14.829C8.385,52.1,10.247,55.61,9.66,62.687c2.367-.092,1.937,1.524,2.946-.753A22.214,22.214,0,0,0,14,54.58q1.049-13.609,2.546-27.172c.5-4.523,1.062-9.036,1.606-13.554.331-2.749.287-5.317,1.654-7.756C21.706,2.721,24.93.2,28.69.014Z" transform="translate(297.533 47.006)"/>
    <path id="Shape-48" data-name="Shape" class="cls-4" d="M15.979.282C18.012-.369,20.2.228,22.244.847Q27.661,2.483,33.017,4.3A28.96,28.96,0,0,1,41.36,8.222c2.562,1.934,4.44,4.623,6.3,7.267a31.574,31.574,0,0,1,3.552,5.988,32.245,32.245,0,0,1,1.776,8.975,11.983,11.983,0,0,1-.049,3.963,9.669,9.669,0,0,1-2.145,3.81,25.766,25.766,0,0,1-5.266,4.8C40.3,46.609,33.985,48.1,27.83,49.416A114.6,114.6,0,0,1,11.2,52.028c-2.18.14-4.711,0-6.043-1.753a6.962,6.962,0,0,1-.888-1.781A68.5,68.5,0,0,1,.109,20.822a20.725,20.725,0,0,1,.777-5.071A24.615,24.615,0,0,1,2.6,11.933C4.278,8.692,6.05,5.339,8.95,3.17,11.982.91,15.912.2,19.673.341" transform="translate(314.535 55.507)"/>
    <path id="Shape-49" data-name="Shape" class="cls-3" d="M66.944,24.9c-1.751,1.2-2.362,3.531-2.585,5.676-.949,9.12,2.741,18.149,2.5,27.315-.2,7.271-2.861,14.25-5.49,21.035a127.324,127.324,0,0,0-7.723,36.553c-.9,12.41-2.228,25.334-8.761,35.831-1.484,2.377-3.213,4.585-4.666,6.975-1.524,2.5-2.732,5.18-4.078,7.78a83.61,83.61,0,0,1-15.152,20.753,20.944,20.944,0,0,1-5.945,4.512,11.757,11.757,0,0,1-9.3.1C2.7,190.139.13,187.24.005,183.878c-.111-3.008,1.649-5.721,3.414-8.13a132.4,132.4,0,0,1,20.5-22.157,11.962,11.962,0,0,0,3.565-4.122c.807-1.959.477-4.181.579-6.3.165-3.385,1.457-6.6,2.228-9.9,3.119-13.4-2.424-28.033,2.086-41.016,1-2.886,2.491-5.644,2.843-8.684a8.394,8.394,0,0,0-1.573-6.1,8.135,8.135,0,0,1-1.934-5.162,9.093,9.093,0,0,1,.049-1.159,127.75,127.75,0,0,0,.789-17.89,42.616,42.616,0,0,0-4.158-17.268c-1.4-2.749-3.209-5.321-4.073-8.289-1.39-4.8-.107-10,1.965-14.541a25.342,25.342,0,0,1,6.787-9.375,17.893,17.893,0,0,1,20.1-1.3c4.519,2.754,7.611,7.384,10.12,12.106C65.095,18.038,66.993,20.96,66.944,24.9Z" transform="translate(284.782 65.07)"/>
    <path id="Shape-50" data-name="Shape" class="cls-4" d="M66.945,24.9c-1.751,1.2-2.362,3.531-2.585,5.676-.949,9.12,2.741,18.149,2.5,27.315-.2,7.271-2.861,14.25-5.49,21.035a127.474,127.474,0,0,0-7.723,36.553c-.909,12.41-2.228,25.334-8.761,35.831-1.484,2.377-3.209,4.585-4.666,6.975-1.52,2.5-2.732,5.18-4.078,7.78a83.705,83.705,0,0,1-15.152,20.753,20.964,20.964,0,0,1-5.949,4.512,11.757,11.757,0,0,1-9.3.1C2.7,190.139.13,187.24.005,183.878c-.116-3.008,1.644-5.721,3.414-8.13a132.374,132.374,0,0,1,20.5-22.157,11.915,11.915,0,0,0,3.565-4.122c.811-1.959.477-4.181.579-6.3.165-3.385,1.457-6.6,2.228-9.9,3.119-13.4-2.424-28.033,2.086-41.016,1-2.886,2.5-5.644,2.848-8.684a8.414,8.414,0,0,0-1.573-6.1,8.086,8.086,0,0,1-1.988-5.162,9.093,9.093,0,0,1,.049-1.159A128.428,128.428,0,0,0,32.5,53.26a42.616,42.616,0,0,0-4.158-17.268c-1.4-2.749-3.209-5.321-4.073-8.289-1.39-4.8-.107-10,1.965-14.541a25.392,25.392,0,0,1,6.787-9.375,17.893,17.893,0,0,1,20.1-1.3c4.519,2.754,7.611,7.384,10.12,12.106C65.086,18.038,66.976,20.96,66.945,24.9Z" transform="translate(285.844 65.07)"/>
    <path id="Shape-51" data-name="Shape" class="cls-6" d="M.914,0,0,.276" transform="translate(395.294 208.524)"/>
    <path id="Shape-52" data-name="Shape" class="cls-6" d="M0,1.063A7.863,7.863,0,0,1,.191,0" transform="translate(319.848 228.714)"/>
    <path id="Shape-53" data-name="Shape" class="cls-2" d="M9.281,4.347a9.01,9.01,0,0,1,4.84-2.692A45.037,45.037,0,0,1,22.891.1a15.116,15.116,0,0,1,5.5.368A7.145,7.145,0,0,1,32.755,3.9a12.813,12.813,0,0,1,1.027,5.144,51.1,51.1,0,0,1-.134,10.842c-.355,2.27-1.019,4.467-1.449,6.719-1.395,7.382-.184,15.023-.309,22.56a12.572,12.572,0,0,1-.748,4.713,12.9,12.9,0,0,1-3.024,3.886,19.394,19.394,0,0,1-4.13,3.364,16.535,16.535,0,0,1-7.484,1.544,10.6,10.6,0,0,1-4.594-.568,4.577,4.577,0,0,1-2.827-3.714c-.167-2.874,2.815-4.754,3.667-7.478.677-2.17-.1-4.567-1.178-6.542a19.874,19.874,0,0,0-7.145-7.514,15,15,0,0,1-3.17-2.125A3.84,3.84,0,0,1,.118,31.1c.464-1.548,2.121-2.27,3.612-2.424s3.065-.036,4.406-.758a6.4,6.4,0,0,0,2.6-3.178,12.751,12.751,0,0,0,.472-8.885,11.234,11.234,0,0,0-1.554-3.074c-.626-.872-1.913-1.607-2.36-2.561C6.5,8.506,8.216,5.709,9.281,4.347Z" transform="translate(405.92 194.71)"/>
    <path id="Shape-54" data-name="Shape" class="cls-3" d="M67.91,16.089C60.722,9.383,50.7,7.56,41.3,5.525Q34.04,3.959,26.847,2.035A51.4,51.4,0,0,0,17.274.055a15.5,15.5,0,0,0-9.416,2,10.283,10.283,0,0,0-4.917,8.364c0,1.378.309,2.728.213,4.092C3,16.709,1.849,18.647,1.061,20.7A17.11,17.11,0,0,0,.535,30.878c1.392,5.36,5.4,10.081,5.056,15.616a110.34,110.34,0,0,0,1.4,28.017c1.8,9.071,4.051,18.183,4,27.465S8.276,121.018,1.71,127.2a35.359,35.359,0,0,0,15.808,9.117c5.061,1.337,11.078,1.2,14.681-2.779a4.406,4.406,0,0,0,1.353-3.408,6.853,6.853,0,0,0-.936-2.228c-2.476-4.68-2.176-10.449-1.079-15.675s2.972-10.306,3.446-15.643c.348-3.872-.044-7.808.657-11.629.54-2.926,1.706-5.681,2.406-8.57,2.067-8.57-.1-17.568-2.263-26.106,1.806,4.386,5.222,7.808,8.755,10.784,5.361,4.51,11.844,8.492,18.658,7.693,6.066-.716,11.231-5.167,14.794-10.389.03-6.04,2.015-11.749,1.662-17.774a47.385,47.385,0,0,0-1.34-7.831A40.417,40.417,0,0,0,75.7,24.37C74.037,20.875,70.686,18.675,67.91,16.089Z" transform="translate(319.848 117.139)"/>
    <path id="Shape-55" data-name="Shape" class="cls-4" d="M67.928,16.094C60.737,9.386,50.717,7.562,41.31,5.527Q34.045,3.96,26.854,2.035A51.494,51.494,0,0,0,17.278.055a15.5,15.5,0,0,0-9.415,2,10.276,10.276,0,0,0-4.919,8.366c0,1.378.3,2.729.209,4.093-.148,2.2-1.328,4.135-2.094,6.188A17.114,17.114,0,0,0,.537,30.887c1.389,5.361,5.4,10.084,5.058,15.62a110.167,110.167,0,0,0,1.4,28.025c1.8,9.074,4.053,18.189,4,27.474S8.259,121.022,1.686,127.2a35.393,35.393,0,0,0,15.814,9.12c5.062,1.337,11.087,1.2,14.687-2.78a4.407,4.407,0,0,0,1.354-3.409A6.855,6.855,0,0,0,32.6,127.9c-2.477-4.682-2.176-10.452-1.08-15.68s2.973-10.31,3.452-15.648c.344-3.873-.048-7.81.657-11.633.535-2.927,1.706-5.683,2.4-8.573,2.068-8.573-.1-17.573-2.263-26.114C37.58,54.64,41,58.062,44.536,61.039c5.363,4.512,11.844,8.495,18.661,7.7,6.068-.717,11.235-5.169,14.8-10.392.026-6.041,2.011-11.752,1.658-17.78a47.4,47.4,0,0,0-1.341-7.833A40.168,40.168,0,0,0,75.7,24.336C74.083,20.881,70.7,18.68,67.928,16.094Z" transform="translate(321.974 117.139)"/>
    <path id="Shape-56" data-name="Shape" class="cls-2" d="M55.228,13.167a28.02,28.02,0,0,1-8.084-8.132A22.8,22.8,0,0,0,44.711,1.61,4.54,4.54,0,0,0,41.106.019c-1.507.168-2.715,1.4-3.671,2.669-2.563,3.411-4.214,7.582-7.059,10.731-3.284,3.644-7.867,5.6-12.441,6.849s-9.3,1.908-13.779,3.49A6.261,6.261,0,0,0,.508,26.291c-.964,1.74-.434,4.022.582,5.748a15.817,15.817,0,0,0,8.458,6.62,72.011,72.011,0,0,0,10.425,2.487c6.194,1.3,12.541,3.387,18.7,1.918,2.459-.588,4.778-1.726,7.263-2.221,5.647-1.129,11.472,1.152,17.141.238A25.627,25.627,0,0,0,70.9,38.137a10.781,10.781,0,0,0,3.345-2.44,4.618,4.618,0,0,0,1.082-4.017,16.72,16.72,0,0,0-1.03-2.249,12.305,12.305,0,0,1-.738-3.788,110.829,110.829,0,0,0-2.38-14.594c-.387-1.675-.964-3.541-2.42-4.274a1.223,1.223,0,0,0-.969-.117c-.517.21-.686.882-.843,1.446a8.542,8.542,0,0,1-6.341,6.225,7.989,7.989,0,0,1-8.073-3.155" transform="translate(283.719 232.964)"/>
    <path id="Shape-57" data-name="Shape" class="cls-3" d="M54.149,28.332a29.182,29.182,0,0,1-.177,3.2,8.887,8.887,0,0,1-7.718-2.614c-.936-1.011-1.637-2.235-2.564-3.255A4.615,4.615,0,0,0,40.141,23.9a4.585,4.585,0,0,0-2.9,1.666,9.653,9.653,0,0,0-2.16,3.887c-.3,1.025-.444,2.19-1.278,2.871a3.982,3.982,0,0,1-2.848.6,8.364,8.364,0,0,1-3.744-.722c-2.129-1.169-2.848-3.847-3.637-6.176-1.331-3.914-4.325-11.318-8.978-12.109-2.218-.375-4.915.817-6.654,2.1C5.323,17.957,3.389,19.212,0,19.158H0A27.8,27.8,0,0,1,30.914.387,28.2,28.2,0,0,1,54.194,28.332Z" transform="translate(262.467 14.065)"/>
    <path id="Shape-58" data-name="Shape" class="cls-6" d="M5.712,33.814a6.368,6.368,0,0,1-2.326-.385C1.258,32.558.222,29.993.043,27.615-.238,23.991.92,20.435,2.083,17a3.54,3.54,0,0,1,1.18-1.966A3.961,3.961,0,0,1,4.927,14.6c3.151-.458,5.885-2.469,8.211-4.724s4.424-4.811,7.022-6.689A18.173,18.173,0,0,1,43.234,5.275c2.361,2.419,4.388,5.7,7.662,6.268,1.887.325,3.91-.353,5.7.38a6.865,6.865,0,0,1,3.01,2.992,30.626,30.626,0,0,1,3.98,13.511,92.063,92.063,0,0,1-.325,14.253,3.848,3.848,0,0,1-.5,2.02,2.968,2.968,0,0,1-1.031.825,8.586,8.586,0,0,1-10.221-1.8c-.93-1.022-1.619-2.263-2.537-3.3a4.506,4.506,0,0,0-3.511-1.782A4.511,4.511,0,0,0,42.6,40.333a9.869,9.869,0,0,0-2.137,3.945c-.29,1.04-.439,2.222-1.264,2.909a3.891,3.891,0,0,1-2.822.614,8.091,8.091,0,0,1-3.7-.738c-2.111-1.182-2.822-3.9-3.6-6.263C27.76,36.828,24.8,29.31,20.194,28.513c-2.194-.385-4.862.829-6.583,2.135C10.979,32.6,9.083,33.873,5.712,33.814Z" transform="translate(256.091 0.25)"/>
    <path id="Shape-59" data-name="Shape" class="cls-3" d="M40.332,4.719c-.307,2.127-2.169,3.788-3.483,5.439-3.572,4.515-7.193,9.045-11.188,13.177A177.588,177.588,0,0,1,12,35.627l-6.084,5.1a7.6,7.6,0,0,1-2.588,1.633A4.535,4.535,0,0,1,0,41.942c.089-.187.183-.359.285-.532l7.3-12.8c1.434-2.51,2.374-4.8,4.008-7.151a70.629,70.629,0,0,1,7.981-10.061C23.4,7.611,28.321,4.864,32.881,2.13,33.54.059,36.3-.514,38.168.465a6.65,6.65,0,0,1,1.839,1.479A5.755,5.755,0,0,1,40.332,4.719Z" transform="translate(77.571 198.96)"/>
    <path id="Shape-60" data-name="Shape" class="cls-6" d="M7.654,66.922.5,79.579A2.459,2.459,0,0,0,.03,81.252,2.366,2.366,0,0,0,.9,82.446C3.648,84.8,6.689,87.285,7.549,90.9c.616,2.581,0,5.346.551,7.937,1.009,4.674,5.462,7.513,9.674,9.31a52.143,52.143,0,0,0,29.944,3.687A43.383,43.383,0,0,0,73.755,96.287c1.992-2.544,3.7-5.328,5.588-7.955,5.243-7.259,11.9-13.219,18.5-19.118,8.5-7.6,13.506-18.925,20.973-27.654,1.359-1.59,2.858-3.226,4.806-3.752,1.092-.29,2.622.138,2.665,1.327.1,2.3,1.857,4.19,3.059,6.116,4.527,7.3,9.263,14.827,16.259,19.482A50.3,50.3,0,0,0,158.1,70.264c10.967,3.6,22.149,6.453,33.317,9.273a19.893,19.893,0,0,1,2.019-3.36c1.158-1.5,2.683-2.641,3.845-4.148,2.128-2.715,2.875-6.305,3.557-9.753-6.672-4.309-13.519-8.757-20.1-13.237a47.833,47.833,0,0,1-9.329-7.591c-1.748-2-3.216-4.291-4.968-6.305a51.672,51.672,0,0,0-5.776-5.406l-15.73-13.288c-4.518-3.812-9.123-7.835-13.545-11.781C128.9,2.447,126.144.11,122.893,0,120.11-.088,117.55,1.483,115.155,3Q94.06,16.32,72.335,28.446c-2.932,1.632-5.877,3.254-8.673,5.13a59.66,59.66,0,0,0-14.3,13.541c-.738.973-1.673,2.079-2.844,1.931a2.474,2.474,0,0,1-.913-.336c-1.8-1.019-2.91-2.987-3.932-4.853s-2.163-3.83-3.994-4.8-4.535-.4-5.186,1.65c-4.5,2.779-9.3,5.471-13.069,9.209a69.454,69.454,0,0,0-7.83,9.942C9.983,62.189,9.057,64.447,7.654,66.922Z" transform="translate(79.232 162.831)"/>
    <path id="Shape-61" data-name="Shape" class="cls-3" d="M0,0A83.541,83.541,0,0,1,11.689,6.376" transform="translate(73.321 151.142)"/>
    <path id="Shape-62" data-name="Shape" class="cls-6" d="M56.118,31.681c.132,4.19.238,8.39.189,12.575a13.948,13.948,0,0,1-1.162,6.476,14.009,14.009,0,0,1-3.082,3.557L44.812,61c-2.25,2.079-4.675,4.249-7.673,4.765-3.429.593-6.78-1.109-10.077-2.246a32.483,32.483,0,0,0-10.3-1.765,37.3,37.3,0,0,1-6.014-.162,24.278,24.278,0,0,1-4.2-1.217L0,58.054c.185-1.684,1.761-2.758,3.082-3.822,4.689-3.88,6.744-10.119,8.224-16.088a97.674,97.674,0,0,0,2.562-14.2,23.776,23.776,0,0,0-.163-7.114,28.667,28.667,0,0,0-1.937-5.452l-2.3-5.3C8.144,3.094,5.5,1.765,2.813,0,6.872,1.572,11.82,2.187,14.907,5.3a8.041,8.041,0,0,0,2.087,1.725,9.71,9.71,0,0,0,2.716.6c4.583.7,8.479,3.638,12.265,6.355q6.951,4.994,14.29,9.382a33.579,33.579,0,0,1,6.326,4.419A10.481,10.481,0,0,1,56.016,34.6" transform="translate(378.292 126.702)"/>
    <path id="Shape-63" data-name="Shape" class="cls-3" d="M8.347,31.643C2.653,32.832-.309,39.91.026,46.032a24.1,24.1,0,0,0,6,14.628c2.376,2.641,5.338,4.68,7.483,7.532,3.17,4.207,4.274,9.769,7.11,14.238a37.789,37.789,0,0,0,7.818,8.226q9.928,8.377,20.5,15.859c2.866,2.025,6,4.074,9.451,4,3.249-.073,6.241-2.09,8.361-4.7a38.3,38.3,0,0,0,4.851-8.9c4.96-11.436,9.954-23,12.326-35.323.743-3.872,1.242-7.863,2.9-11.4a55.582,55.582,0,0,1,4.951-7.606,53.973,53.973,0,0,0,8.374-19.786c.947-4.657,1.264-9.645-.291-14.1S94.536.375,90.041.026C86.484-.249,82.992,1.68,80.6,4.486a25.254,25.254,0,0,0-4.756,10.026,50.666,50.666,0,0,0-1.564,16.075c.278,4.368,1.121,8.777.408,13.094a36.387,36.387,0,0,1-3,8.69C68.482,59.6,65.22,66.92,60.369,73.038c-1.581,1.993-3.757,4.009-6.176,3.541-3.344-.643-4.23-5.121-5.881-8.267-2.024-3.858-5.863-6.177-8.873-9.241-4.282-4.363-6.849-10.214-9.894-15.615s-6.984-10.733-12.6-12.8-13.09.588-14.532,6.687" transform="translate(32.941 120.326)"/>
    <path id="Shape-64" data-name="Shape" class="cls-3" d="M12.609,37.929c-5.7,1.189-12.953,1.966-12.6,8.1a24.044,24.044,0,0,0,6,14.627c2.376,2.645,5.338,4.684,7.484,7.536,3.171,4.207,4.274,9.764,7.111,14.237a37.585,37.585,0,0,0,7.819,8.225q9.93,8.381,20.506,15.858c2.867,2.03,6,4.078,9.452,4,3.249-.073,6.242-2.094,8.362-4.7A38.141,38.141,0,0,0,71.6,96.907c4.96-11.436,9.956-23,12.327-35.322.743-3.867,1.242-7.863,2.9-11.4a55.908,55.908,0,0,1,4.952-7.61,53.914,53.914,0,0,0,8.375-19.78c.947-4.661,1.264-9.644-.291-14.1S94.535.38,90.04.026C86.482-.249,82.99,1.684,80.6,4.486a25.211,25.211,0,0,0-4.756,10.03A50.641,50.641,0,0,0,74.281,30.59c.278,4.372,1.121,8.781.408,13.093a36.346,36.346,0,0,1-3,8.694c-3.21,7.229-6.472,14.545-11.324,20.667-1.581,1.993-3.757,4-6.177,3.541-3.345-.648-4.231-5.125-5.881-8.267-2.024-3.858-5.864-6.177-8.874-9.24-4.283-4.358-6.85-10.214-9.895-15.615s-6.985-10.728-12.6-12.8,1.416,11.22-.03,17.319" transform="translate(32.941 118.201)"/>
    <path id="Shape-65" data-name="Shape" class="cls-4" d="M8.347,31.634C2.653,32.824-.309,39.9.026,46.023a24.1,24.1,0,0,0,6,14.633c2.376,2.641,5.338,4.68,7.483,7.532,3.17,4.207,4.274,9.769,7.11,14.238a37.708,37.708,0,0,0,7.818,8.23q9.928,8.377,20.5,15.854c2.866,2.03,6,4.078,9.451,4,3.249-.073,6.241-2.09,8.361-4.7a38.3,38.3,0,0,0,4.851-8.9c4.96-11.436,9.954-23,12.326-35.327.743-3.867,1.242-7.863,2.9-11.4a55.911,55.911,0,0,1,4.951-7.61,53.92,53.92,0,0,0,8.374-19.781c.947-4.662,1.264-9.645-.291-14.1S94.536.376,90.041.027c-3.557-.28-7.049,1.653-9.438,4.46a25.254,25.254,0,0,0-4.756,10.026,50.665,50.665,0,0,0-1.564,16.075c.278,4.368,1.121,8.777.408,13.089a36.351,36.351,0,0,1-3,8.694C68.482,59.6,65.22,66.92,60.369,73.038c-1.581,1.993-3.757,4-6.176,3.541-3.344-.648-4.23-5.121-5.881-8.267-2.024-3.863-5.863-6.182-8.873-9.241-4.282-4.363-6.849-10.214-9.894-15.615s-6.984-10.729-12.6-12.8-13.09.588-14.532,6.687" transform="translate(32.941 119.264)"/>
    <g id="Group-2" data-name="Group" class="cls-9" transform="translate(3.188 61.882)">
      <path id="Shape-66" data-name="Shape" d="M16.092,20.716a57.766,57.766,0,0,1-4.606-9.786l-.15-.452A14.671,14.671,0,0,1,9.009,7.044,17.662,17.662,0,0,1,7.5.258V0a10.4,10.4,0,0,0-.693,2.262c-.442,2.552.287,5.157,1.161,7.591a57.926,57.926,0,0,0,4.606,9.786c2.742,4.7,6.244,9.22,6.788,14.608.817,8.062-5.118,15.16-6.584,23.127-1.122,6.085.3,12.884-2.875,18.15a15.036,15.036,0,0,1-4.977,4.832,13.907,13.907,0,0,1-4.076,1.81,9.593,9.593,0,0,1-.848.9c2.8,1,5.926-.077,8.452-1.669a15.1,15.1,0,0,0,4.977-4.836C16.6,71.3,15.2,64.5,16.3,58.414c1.471-7.962,7.406-15.065,6.589-23.127C22.341,29.868,18.843,25.348,16.092,20.716Z" transform="translate(0.097 29.75)"/>
      <path id="Shape-67" data-name="Shape" d="M40.827,10.261c-1.135-2.692-3.533-4.6-6-6.1A34.246,34.246,0,0,0,24.757,0,35.615,35.615,0,0,1,31.3,3.126c2.464,1.5,4.858,3.407,6,6.1s.574,6.334-1.881,7.836c-1.731,1.063-3.891.873-5.909.828a34.71,34.71,0,0,0-5.22.271,4.927,4.927,0,0,0-1.8.489,4.565,4.565,0,0,0-1.669,2.013,14.3,14.3,0,0,0-1.413,4.447c-.247,1.737-.225,3.642-1.285,5.022-1.44,1.877-3.692,1.592-5.741,1.963a15.235,15.235,0,0,0-5.039,1.972A12.629,12.629,0,0,0,1.391,44.078a19,19,0,0,1-.243,4.348A7.239,7.239,0,0,1,0,50.687a15.408,15.408,0,0,1,2.04,2.818,10.736,10.736,0,0,0,2.65-4.049A19.04,19.04,0,0,0,4.937,45.1,12.656,12.656,0,0,1,10.89,35.1a15.073,15.073,0,0,1,5.039-1.968c2.04-.375,4.292-.09,5.741-1.968,1.06-1.357,1.033-3.284,1.285-5.022a14.3,14.3,0,0,1,1.409-4.447A4.536,4.536,0,0,1,26.033,19.7a4.767,4.767,0,0,1,1.8-.489,35.318,35.318,0,0,1,5.22-.276c2.018.05,4.178.235,5.909-.828C41.4,16.594,41.962,12.975,40.827,10.261Z" transform="translate(26.324 0.394)"/>
    </g>
    <path id="Shape-68" data-name="Shape" class="cls-3" d="M0,0S4.765,3.609,13.814,1.421C13.814,1.414,8.21,3.357,0,0Z" transform="translate(43.567 118.201)"/>
    <path id="Shape-69" data-name="Shape" class="cls-3" d="M63.325,13.857a3.611,3.611,0,0,1-.527,1.934,2.941,2.941,0,0,1-1.033.79,8.832,8.832,0,0,1-10.229-1.726c-.932-.989-1.621-2.207-2.54-3.183A4.665,4.665,0,0,0,45.481,9.95a4.606,4.606,0,0,0-2.869,1.629,9.569,9.569,0,0,0-2.14,3.8c-.286,1.007-.439,2.141-1.261,2.808a3.989,3.989,0,0,1-2.825.587,8.287,8.287,0,0,1-3.7-.706c-2.114-1.139-2.825-3.761-3.607-6.035C27.756,8.2,24.794.962,20.185.19c-2.2-.366-4.873.8-6.591,2.057C11,4.141,9.081,5.368,5.72,5.337a6.69,6.69,0,0,1-2.329-.371C1.458,4.2.425,2.092.113,0A14.773,14.773,0,0,0,.039,2.892C.223,5.178,1.26,7.65,3.391,8.494a6.69,6.69,0,0,0,2.329.371c3.361.053,5.273-1.174,7.874-3.068,1.727-1.254,4.394-2.428,6.591-2.057,4.592.75,7.58,7.99,8.872,11.818.782,2.278,1.494,4.9,3.607,6.039a8.348,8.348,0,0,0,3.7.706,4.128,4.128,0,0,0,2.825-.587,5.486,5.486,0,0,0,1.261-2.808,9.538,9.538,0,0,1,2.14-3.8,4.629,4.629,0,0,1,2.869-1.629A4.467,4.467,0,0,1,48.979,15.2c.879,1,1.608,2.207,2.54,3.183a8.832,8.832,0,0,0,10.229,1.726,2.994,2.994,0,0,0,1.033-.79,3.615,3.615,0,0,0,.527-1.938,105.766,105.766,0,0,0,.439-11.186C63.712,8.75,63.523,11.306,63.325,13.857Z" transform="translate(256.091 24.691)"/>
    <path id="Shape-70" data-name="Shape" class="cls-10" d="M13.648,13.065s.627-.811-.552-1.132V10.6h.709c0-3.322-2-6.188-4.8-6.877V2.1h.185V0H4.636V2.1h.13V3.741C2,4.462.035,7.32.037,10.617H.664V11.9s-1.493.821,0,2.292,1.261,2.535,1.261,2.535S1.3,19.474.041,19.832v25.5a6.169,6.169,0,0,0,1.425,4.01,4.552,4.552,0,0,0,3.445,1.661h3.85c2.692,0,4.874-2.539,4.874-5.671v-25.5s-2.2-1.921-1.809-3.108a30.127,30.127,0,0,1,1.82-3.658Z" transform="translate(0 220.213)"/>
  </g>
</svg>
